<svg width="23" height="16" viewBox="0 0 23 16" fill="none" xmlns="http://www.w3.org/2000/svg">
<path d="M21.4904 0.513029C21.1046 0.170946 20.6406 0 20.0988 0H1.97051C1.42865 0 0.964681 0.170946 0.578791 0.513029C0.192859 0.855036 0 1.26625 0 1.74662V13.6235C0 14.1039 0.192859 14.5148 0.578791 14.8568C0.964638 15.1991 1.4286 15.37 1.97051 15.37H20.0989C20.6406 15.37 21.1046 15.1991 21.4905 14.8568C21.8765 14.5148 22.0693 14.1037 22.0693 13.6235V1.74662C22.0692 1.26625 21.8765 0.855036 21.4904 0.513029ZM20.4927 13.6232C20.4927 13.7179 20.4537 13.7997 20.3756 13.8688C20.2975 13.938 20.2053 13.9723 20.0987 13.9723H1.97038C1.86367 13.9723 1.77127 13.938 1.69332 13.8688C1.61529 13.7997 1.57634 13.7179 1.57634 13.6232V5.23968C1.83904 5.50166 2.12231 5.74185 2.42611 5.96013C4.62653 7.45926 6.37529 8.68907 7.67254 9.64975C8.09126 9.96274 8.43203 10.2065 8.69472 10.3812C8.95742 10.5559 9.31251 10.7324 9.75991 10.9106C10.2074 11.089 10.6282 11.1779 11.0223 11.1779H11.0346H11.0469C11.4409 11.1779 11.8619 11.089 12.3092 10.9106C12.7567 10.7324 13.112 10.556 13.3747 10.3812C13.6373 10.2065 13.9781 9.96274 14.3969 9.64975C15.6941 8.68907 17.4427 7.45926 19.6432 5.96013C19.947 5.74189 20.2304 5.50166 20.4927 5.23968V13.6232ZM20.4927 2.03036V2.15042C20.4927 2.57975 20.302 3.05829 19.9202 3.58585C19.5385 4.11341 19.1257 4.53376 18.6826 4.84659C17.0978 5.95294 15.4519 7.10628 13.7439 8.30703C13.6947 8.3434 13.5509 8.45068 13.3127 8.62889C13.0748 8.80737 12.8859 8.94398 12.7463 9.03846C12.6065 9.1332 12.424 9.24779 12.1983 9.3823C11.9725 9.51681 11.7652 9.61706 11.5764 9.68248C11.3876 9.74775 11.211 9.78043 11.0469 9.78043H11.0346H11.0223C10.8581 9.78043 10.6817 9.74775 10.4928 9.68248C10.304 9.61706 10.0966 9.51681 9.8709 9.3823C9.64525 9.24775 9.46253 9.13317 9.32295 9.03846C9.18345 8.94398 8.99451 8.80737 8.75649 8.62889C8.51838 8.45068 8.37457 8.3434 8.32535 8.30703C6.61766 7.10625 4.97157 5.95294 3.38691 4.84659C2.17993 4.00253 1.57656 2.96905 1.57656 1.74643C1.57656 1.65192 1.61551 1.56998 1.69354 1.50093C1.77157 1.43176 1.86388 1.39716 1.9706 1.39716H20.099C20.1645 1.42985 20.2221 1.43895 20.2714 1.4245C20.3207 1.40978 20.3575 1.43715 20.382 1.50624C20.4067 1.57541 20.4293 1.6081 20.4498 1.60451C20.4703 1.60084 20.4827 1.6463 20.4868 1.74104C20.4907 1.8356 20.4927 1.8832 20.4927 1.8832V2.03036H20.4927Z" fill="#2D5380"/>
</svg>
